<?xml version="1.0" encoding="UTF-8" standalone="no"?>
<!DOCTYPE svg PUBLIC "-//W3C//DTD SVG 1.1//EN"
 "http://www.w3.org/Graphics/SVG/1.1/DTD/svg11.dtd">
<!-- Generated by graphviz version 2.43.0 (0)
 -->
<!-- Title: com.teragrep.buf_01.buffer.lease.TrackedMemorySegmentLease.leasedObject Pages: 1 -->
<svg width="485pt" height="86pt"
 viewBox="0.00 0.00 485.00 86.00" xmlns="http://www.w3.org/2000/svg" xmlns:xlink="http://www.w3.org/1999/xlink">
<g id="graph0" class="graph" transform="scale(1 1) rotate(0) translate(4 82)">
<title>com.teragrep.buf_01.buffer.lease.TrackedMemorySegmentLease.leasedObject</title>
<!-- Node1 -->
<g id="Node000001" class="node">
<title>Node1</title>
<g id="a_Node000001"><a xlink:title=" ">
<polygon fill="#999999" stroke="#666666" points="477,-54 244,-54 244,-24 477,-24 477,-54"/>
<text text-anchor="start" x="252" y="-42" font-family="Helvetica,sans-Serif" font-size="10.00">com.teragrep.buf_01.buffer.lease.</text>
<text text-anchor="middle" x="360.5" y="-31" font-family="Helvetica,sans-Serif" font-size="10.00">TrackedMemorySegmentLease.leasedObject</text>
</a>
</g>
</g>
<!-- Node2 -->
<g id="Node000002" class="node">
<title>Node2</title>
<g id="a_Node000002"><a xlink:href="classcom_1_1teragrep_1_1buf__01_1_1buffer_1_1lease_1_1TrackedMemorySegmentLease.html#a844524847207d55bc758d3e2944ce085" target="_top" xlink:title=" ">
<polygon fill="white" stroke="#666666" points="199.5,-78 8.5,-78 8.5,-48 199.5,-48 199.5,-78"/>
<text text-anchor="start" x="16.5" y="-66" font-family="Helvetica,sans-Serif" font-size="10.00">com.teragrep.buf_01.buffer.lease.</text>
<text text-anchor="middle" x="104" y="-55" font-family="Helvetica,sans-Serif" font-size="10.00">TrackedMemorySegmentLease.limit</text>
</a>
</g>
</g>
<!-- Node1&#45;&gt;Node2 -->
<g id="edge1_Node000001_Node000002" class="edge">
<title>Node1&#45;&gt;Node2</title>
<g id="a_edge1_Node000001_Node000002"><a xlink:title=" ">
<path fill="none" stroke="#63b8ff" d="M233.77,-50.86C222.36,-51.93 210.93,-53.01 199.85,-54.06"/>
<polygon fill="#63b8ff" stroke="#63b8ff" points="234.17,-54.33 243.79,-49.91 233.51,-47.37 234.17,-54.33"/>
</a>
</g>
</g>
<!-- Node3 -->
<g id="Node000003" class="node">
<title>Node3</title>
<g id="a_Node000003"><a xlink:href="classcom_1_1teragrep_1_1buf__01_1_1buffer_1_1lease_1_1TrackedMemorySegmentLease.html#a40d6bf6b0b743c66cca14f0e655a6c08" target="_top" xlink:title=" ">
<polygon fill="white" stroke="#666666" points="208,-30 0,-30 0,0 208,0 208,-30"/>
<text text-anchor="start" x="8" y="-18" font-family="Helvetica,sans-Serif" font-size="10.00">com.teragrep.buf_01.buffer.lease.</text>
<text text-anchor="middle" x="104" y="-7" font-family="Helvetica,sans-Serif" font-size="10.00">TrackedMemorySegmentLease.position</text>
</a>
</g>
</g>
<!-- Node1&#45;&gt;Node3 -->
<g id="edge2_Node000001_Node000003" class="edge">
<title>Node1&#45;&gt;Node3</title>
<g id="a_edge2_Node000001_Node000003"><a xlink:title=" ">
<path fill="none" stroke="#63b8ff" d="M233.8,-27.15C225.27,-26.34 216.74,-25.54 208.35,-24.75"/>
<polygon fill="#63b8ff" stroke="#63b8ff" points="233.51,-30.63 243.79,-28.09 234.17,-23.67 233.51,-30.63"/>
</a>
</g>
</g>
</g>
</svg>
