<?xml version="1.0" encoding="UTF-8" standalone="no"?>
<!DOCTYPE svg PUBLIC "-//W3C//DTD SVG 1.1//EN"
 "http://www.w3.org/Graphics/SVG/1.1/DTD/svg11.dtd">
<!-- Generated by graphviz version 2.43.0 (0)
 -->
<!-- Title: com.teragrep.buf_01.buffer.lease.TrackedMemorySegmentLease Pages: 1 -->
<svg width="189pt" height="115pt"
 viewBox="0.00 0.00 189.00 115.00" xmlns="http://www.w3.org/2000/svg" xmlns:xlink="http://www.w3.org/1999/xlink">
<g id="graph0" class="graph" transform="scale(1 1) rotate(0) translate(4 111)">
<title>com.teragrep.buf_01.buffer.lease.TrackedMemorySegmentLease</title>
<!-- Node1 -->
<g id="Node000001" class="node">
<title>Node1</title>
<g id="a_Node000001"><a xlink:title=" ">
<polygon fill="#999999" stroke="#666666" points="181,-30 0,-30 0,0 181,0 181,-30"/>
<text text-anchor="start" x="8" y="-18" font-family="Helvetica,sans-Serif" font-size="10.00">com.teragrep.buf_01.buffer.lease.</text>
<text text-anchor="middle" x="90.5" y="-7" font-family="Helvetica,sans-Serif" font-size="10.00">TrackedMemorySegmentLease</text>
</a>
</g>
</g>
<!-- Node2 -->
<g id="Node000002" class="node">
<title>Node2</title>
<g id="a_Node000002"><a xlink:href="interfacecom_1_1teragrep_1_1buf__01_1_1buffer_1_1lease_1_1Lease.html" target="_top" xlink:title=" ">
<polygon fill="white" stroke="#666666" points="181,-107 0,-107 0,-77 181,-77 181,-107"/>
<text text-anchor="start" x="8" y="-95" font-family="Helvetica,sans-Serif" font-size="10.00">com.teragrep.buf_01.buffer.lease.</text>
<text text-anchor="middle" x="90.5" y="-84" font-family="Helvetica,sans-Serif" font-size="10.00">Lease&lt; MemorySegment &gt;</text>
</a>
</g>
</g>
<!-- Node2&#45;&gt;Node1 -->
<g id="edge1_Node000001_Node000002" class="edge">
<title>Node2&#45;&gt;Node1</title>
<g id="a_edge1_Node000001_Node000002"><a xlink:title=" ">
<path fill="none" stroke="#63b8ff" d="M88.7,-66.45C88.44,-60.42 88.31,-53.98 88.5,-48 88.68,-42.1 89.06,-35.6 89.43,-30.01"/>
<polygon fill="#63b8ff" stroke="#63b8ff" points="85.22,-66.88 89.28,-76.67 92.21,-66.49 85.22,-66.88"/>
</a>
</g>
</g>
<!-- Node2&#45;&gt;Node1 -->
<g id="edge2_Node000001_Node000002" class="edge">
<title>Node2&#45;&gt;Node1</title>
<g id="a_edge2_Node000001_Node000002"><a xlink:title=" ">
<path fill="none" stroke="#9a32cd" stroke-dasharray="5,2" d="M90.5,-66.54C90.5,-54.45 90.5,-40.29 90.5,-30.04"/>
<polygon fill="#9a32cd" stroke="#9a32cd" points="87,-66.89 90.5,-76.89 94,-66.89 87,-66.89"/>
</a>
</g>
<text text-anchor="middle" x="106" y="-51" font-family="Helvetica,sans-Serif" font-size="10.00" fill="grey"> origin</text>
</g>
</g>
</svg>
