<?xml version="1.0" encoding="UTF-8" standalone="no"?>
<!DOCTYPE svg PUBLIC "-//W3C//DTD SVG 1.1//EN"
 "http://www.w3.org/Graphics/SVG/1.1/DTD/svg11.dtd">
<!-- Generated by graphviz version 2.43.0 (0)
 -->
<!-- Title: Graphical Class Hierarchy Pages: 1 -->
<svg width="406pt" height="86pt"
 viewBox="0.00 0.00 406.00 86.00" xmlns="http://www.w3.org/2000/svg" xmlns:xlink="http://www.w3.org/1999/xlink">
<g id="graph0" class="graph" transform="scale(1 1) rotate(0) translate(4 82)">
<title>Graphical Class Hierarchy</title>
<!-- Node0 -->
<g id="Node000000" class="node">
<title>Node0</title>
<g id="a_Node000000"><a xlink:href="interfacecom_1_1teragrep_1_1buf__01_1_1buffer_1_1lease_1_1Lease.html" target="_top" xlink:title=" ">
<polygon fill="white" stroke="#666666" points="181,-54 0,-54 0,-24 181,-24 181,-54"/>
<text text-anchor="start" x="8" y="-42" font-family="Helvetica,sans-Serif" font-size="10.00">com.teragrep.buf_01.buffer.lease.</text>
<text text-anchor="middle" x="90.5" y="-31" font-family="Helvetica,sans-Serif" font-size="10.00">Lease&lt; MemorySegment &gt;</text>
</a>
</g>
</g>
<!-- Node1 -->
<g id="Node000001" class="node">
<title>Node1</title>
<g id="a_Node000001"><a xlink:href="classcom_1_1teragrep_1_1buf__01_1_1buffer_1_1lease_1_1MemorySegmentSubLease.html" target="_top" xlink:title="Similar to MemorySegmentLease, this object provides a lease, however the lease is not openable as it ...">
<polygon fill="white" stroke="#666666" points="398,-78 217,-78 217,-48 398,-48 398,-78"/>
<text text-anchor="start" x="225" y="-66" font-family="Helvetica,sans-Serif" font-size="10.00">com.teragrep.buf_01.buffer.lease.</text>
<text text-anchor="middle" x="307.5" y="-55" font-family="Helvetica,sans-Serif" font-size="10.00">MemorySegmentSubLease</text>
</a>
</g>
</g>
<!-- Node0&#45;&gt;Node1 -->
<g id="edge8_Node000000_Node000001" class="edge">
<title>Node0&#45;&gt;Node1</title>
<g id="a_edge8_Node000000_Node000001"><a xlink:title=" ">
<path fill="none" stroke="#63b8ff" d="M191.1,-50.12C199.63,-51.07 208.23,-52.03 216.68,-52.97"/>
<polygon fill="#63b8ff" stroke="#63b8ff" points="191.45,-46.64 181.12,-49 190.67,-53.59 191.45,-46.64"/>
</a>
</g>
</g>
<!-- Node2 -->
<g id="Node000002" class="node">
<title>Node2</title>
<g id="a_Node000002"><a xlink:href="classcom_1_1teragrep_1_1buf__01_1_1buffer_1_1lease_1_1TrackedMemorySegmentLease.html" target="_top" xlink:title=" ">
<polygon fill="white" stroke="#666666" points="398,-30 217,-30 217,0 398,0 398,-30"/>
<text text-anchor="start" x="225" y="-18" font-family="Helvetica,sans-Serif" font-size="10.00">com.teragrep.buf_01.buffer.lease.</text>
<text text-anchor="middle" x="307.5" y="-7" font-family="Helvetica,sans-Serif" font-size="10.00">TrackedMemorySegmentLease</text>
</a>
</g>
</g>
<!-- Node0&#45;&gt;Node2 -->
<g id="edge9_Node000000_Node000002" class="edge">
<title>Node0&#45;&gt;Node2</title>
<g id="a_edge9_Node000000_Node000002"><a xlink:title=" ">
<path fill="none" stroke="#63b8ff" d="M191.1,-27.88C199.63,-26.93 208.23,-25.97 216.68,-25.03"/>
<polygon fill="#63b8ff" stroke="#63b8ff" points="190.67,-24.41 181.12,-29 191.45,-31.36 190.67,-24.41"/>
</a>
</g>
</g>
</g>
</svg>
