<?xml version="1.0" encoding="UTF-8" standalone="no"?>
<!DOCTYPE svg PUBLIC "-//W3C//DTD SVG 1.1//EN"
 "http://www.w3.org/Graphics/SVG/1.1/DTD/svg11.dtd">
<!-- Generated by graphviz version 2.43.0 (0)
 -->
<!-- Title: com.teragrep.buf_01.buffer.lease.Lease.leasedObject Pages: 1 -->
<svg width="702pt" height="194pt"
 viewBox="0.00 0.00 702.00 194.00" xmlns="http://www.w3.org/2000/svg" xmlns:xlink="http://www.w3.org/1999/xlink">
<g id="graph0" class="graph" transform="scale(1 1) rotate(0) translate(4 190)">
<title>com.teragrep.buf_01.buffer.lease.Lease.leasedObject</title>
<!-- Node1 -->
<g id="Node000001" class="node">
<title>Node1</title>
<g id="a_Node000001"><a xlink:title=" ">
<polygon fill="#999999" stroke="#666666" points="694,-137 513,-137 513,-107 694,-107 694,-137"/>
<text text-anchor="start" x="521" y="-125" font-family="Helvetica,sans-Serif" font-size="10.00">com.teragrep.buf_01.buffer.lease.</text>
<text text-anchor="middle" x="603.5" y="-114" font-family="Helvetica,sans-Serif" font-size="10.00">Lease.leasedObject</text>
</a>
</g>
</g>
<!-- Node2 -->
<g id="Node000002" class="node">
<title>Node2</title>
<g id="a_Node000002"><a xlink:href="classcom_1_1teragrep_1_1buf__01_1_1buffer_1_1lease_1_1TrackedMemorySegmentLease.html#aff53bdf091bdb827968b7c4e2bed9858" target="_top" xlink:title=" ">
<polygon fill="white" stroke="#666666" points="465,-159 256,-159 256,-129 465,-129 465,-159"/>
<text text-anchor="start" x="264" y="-147" font-family="Helvetica,sans-Serif" font-size="10.00">com.teragrep.buf_01.buffer.lease.</text>
<text text-anchor="middle" x="360.5" y="-136" font-family="Helvetica,sans-Serif" font-size="10.00">TrackedMemorySegmentLease.hasNext</text>
</a>
</g>
</g>
<!-- Node1&#45;&gt;Node2 -->
<g id="edge1_Node000001_Node000002" class="edge">
<title>Node1&#45;&gt;Node2</title>
<g id="a_edge1_Node000001_Node000002"><a xlink:title=" ">
<path fill="none" stroke="#63b8ff" d="M502.48,-131.13C490.14,-132.26 477.51,-133.41 465.13,-134.54"/>
<polygon fill="#63b8ff" stroke="#63b8ff" points="503.12,-134.59 512.76,-130.19 502.48,-127.62 503.12,-134.59"/>
</a>
</g>
</g>
<!-- Node3 -->
<g id="Node000003" class="node">
<title>Node3</title>
<g id="a_Node000003"><a xlink:href="classcom_1_1teragrep_1_1buf__01_1_1buffer_1_1lease_1_1TrackedMemorySegmentLease.html#aa9ba09bfafb6da748dab1b1cbc1764ab" target="_top" xlink:title=" ">
<polygon fill="white" stroke="#666666" points="199.5,-186 8.5,-186 8.5,-156 199.5,-156 199.5,-186"/>
<text text-anchor="start" x="16.5" y="-174" font-family="Helvetica,sans-Serif" font-size="10.00">com.teragrep.buf_01.buffer.lease.</text>
<text text-anchor="middle" x="104" y="-163" font-family="Helvetica,sans-Serif" font-size="10.00">TrackedMemorySegmentLease.next</text>
</a>
</g>
</g>
<!-- Node1&#45;&gt;Node3 -->
<g id="edge7_Node000001_Node000003" class="edge">
<title>Node1&#45;&gt;Node3</title>
<g id="a_edge7_Node000001_Node000003"><a xlink:title=" ">
<path fill="none" stroke="#63b8ff" d="M561.35,-141.15C537.33,-151.29 506.1,-162.71 477,-168 383.91,-184.91 275.54,-183.45 199.86,-179.1"/>
<polygon fill="#63b8ff" stroke="#63b8ff" points="563.06,-144.23 570.85,-137.05 560.28,-137.8 563.06,-144.23"/>
</a>
</g>
</g>
<!-- Node4 -->
<g id="Node000004" class="node">
<title>Node4</title>
<g id="a_Node000004"><a xlink:href="classcom_1_1teragrep_1_1buf__01_1_1buffer_1_1lease_1_1TrackedMemorySegmentLease.html#ae5b248e69f4661a3f3e94d2c64e4e3dc" target="_top" xlink:title=" ">
<polygon fill="white" stroke="#666666" points="201,-134 7,-134 7,-104 201,-104 201,-134"/>
<text text-anchor="start" x="15" y="-122" font-family="Helvetica,sans-Serif" font-size="10.00">com.teragrep.buf_01.buffer.lease.</text>
<text text-anchor="middle" x="104" y="-111" font-family="Helvetica,sans-Serif" font-size="10.00">TrackedMemorySegmentLease.write</text>
</a>
</g>
</g>
<!-- Node1&#45;&gt;Node4 -->
<g id="edge8_Node000001_Node000004" class="edge">
<title>Node1&#45;&gt;Node4</title>
<g id="a_edge8_Node000001_Node000004"><a xlink:title=" ">
<path fill="none" stroke="#63b8ff" d="M502.55,-120.29C493.91,-120.18 485.3,-120.08 477,-120 383.36,-119.13 276.45,-118.92 201.35,-118.91"/>
<polygon fill="#63b8ff" stroke="#63b8ff" points="502.65,-123.79 512.7,-120.42 502.74,-116.79 502.65,-123.79"/>
</a>
</g>
</g>
<!-- Node5 -->
<g id="Node000005" class="node">
<title>Node5</title>
<g id="a_Node000005"><a xlink:href="classcom_1_1teragrep_1_1buf__01_1_1buffer_1_1lease_1_1TrackedMemorySegmentLease.html#a4e3c99ee0f5e4d2daedf21ff0764154f" target="_top" xlink:title=" ">
<polygon fill="white" stroke="#666666" points="477,-73 244,-73 244,-43 477,-43 477,-73"/>
<text text-anchor="start" x="252" y="-61" font-family="Helvetica,sans-Serif" font-size="10.00">com.teragrep.buf_01.buffer.lease.</text>
<text text-anchor="middle" x="360.5" y="-50" font-family="Helvetica,sans-Serif" font-size="10.00">TrackedMemorySegmentLease.leasedObject</text>
</a>
</g>
</g>
<!-- Node1&#45;&gt;Node5 -->
<g id="edge4_Node000001_Node000005" class="edge">
<title>Node1&#45;&gt;Node5</title>
<g id="a_edge4_Node000001_Node000005"><a xlink:title=" ">
<path fill="none" stroke="#63b8ff" d="M540.09,-104.25C519.98,-98.62 497.58,-92.45 477,-87 459.41,-82.34 440.27,-77.46 422.72,-73.06"/>
<polygon fill="#63b8ff" stroke="#63b8ff" points="539.19,-107.63 549.76,-106.96 541.08,-100.89 539.19,-107.63"/>
</a>
</g>
</g>
<!-- Node2&#45;&gt;Node3 -->
<g id="edge2_Node000002_Node000003" class="edge">
<title>Node2&#45;&gt;Node3</title>
<g id="a_edge2_Node000002_Node000003"><a xlink:title=" ">
<path fill="none" stroke="#63b8ff" d="M245.91,-156.05C230.51,-157.68 214.84,-159.35 199.81,-160.94"/>
<polygon fill="#63b8ff" stroke="#63b8ff" points="246.41,-159.52 255.99,-154.98 245.67,-152.56 246.41,-159.52"/>
</a>
</g>
</g>
<!-- Node2&#45;&gt;Node4 -->
<g id="edge3_Node000002_Node000004" class="edge">
<title>Node2&#45;&gt;Node4</title>
<g id="a_edge3_Node000002_Node000004"><a xlink:title=" ">
<path fill="none" stroke="#63b8ff" d="M245.71,-132.82C230.79,-131.36 215.62,-129.87 201.03,-128.43"/>
<polygon fill="#63b8ff" stroke="#63b8ff" points="245.69,-136.34 255.99,-133.83 246.38,-129.37 245.69,-136.34"/>
</a>
</g>
</g>
<!-- Node6 -->
<g id="Node000006" class="node">
<title>Node6</title>
<g id="a_Node000006"><a xlink:href="classcom_1_1teragrep_1_1buf__01_1_1buffer_1_1lease_1_1TrackedMemorySegmentLease.html#a844524847207d55bc758d3e2944ce085" target="_top" xlink:title=" ">
<polygon fill="white" stroke="#666666" points="199.5,-78 8.5,-78 8.5,-48 199.5,-48 199.5,-78"/>
<text text-anchor="start" x="16.5" y="-66" font-family="Helvetica,sans-Serif" font-size="10.00">com.teragrep.buf_01.buffer.lease.</text>
<text text-anchor="middle" x="104" y="-55" font-family="Helvetica,sans-Serif" font-size="10.00">TrackedMemorySegmentLease.limit</text>
</a>
</g>
</g>
<!-- Node5&#45;&gt;Node6 -->
<g id="edge5_Node000005_Node000006" class="edge">
<title>Node5&#45;&gt;Node6</title>
<g id="a_edge5_Node000005_Node000006"><a xlink:title=" ">
<path fill="none" stroke="#63b8ff" d="M233.77,-60.47C222.36,-60.69 210.93,-60.92 199.85,-61.14"/>
<polygon fill="#63b8ff" stroke="#63b8ff" points="233.86,-63.97 243.79,-60.27 233.73,-56.97 233.86,-63.97"/>
</a>
</g>
</g>
<!-- Node7 -->
<g id="Node000007" class="node">
<title>Node7</title>
<g id="a_Node000007"><a xlink:href="classcom_1_1teragrep_1_1buf__01_1_1buffer_1_1lease_1_1TrackedMemorySegmentLease.html#a40d6bf6b0b743c66cca14f0e655a6c08" target="_top" xlink:title=" ">
<polygon fill="white" stroke="#666666" points="208,-30 0,-30 0,0 208,0 208,-30"/>
<text text-anchor="start" x="8" y="-18" font-family="Helvetica,sans-Serif" font-size="10.00">com.teragrep.buf_01.buffer.lease.</text>
<text text-anchor="middle" x="104" y="-7" font-family="Helvetica,sans-Serif" font-size="10.00">TrackedMemorySegmentLease.position</text>
</a>
</g>
</g>
<!-- Node5&#45;&gt;Node7 -->
<g id="edge6_Node000005_Node000007" class="edge">
<title>Node5&#45;&gt;Node7</title>
<g id="a_edge6_Node000005_Node000007"><a xlink:title=" ">
<path fill="none" stroke="#63b8ff" d="M260.5,-41.27C238.57,-37.57 215.46,-33.66 193.96,-30.03"/>
<polygon fill="#63b8ff" stroke="#63b8ff" points="260.04,-44.75 270.49,-42.96 261.21,-37.84 260.04,-44.75"/>
</a>
</g>
</g>
</g>
</svg>
